<?xml version="1.0" encoding="utf-8"?>
<!-- Generator: Adobe Illustrator 22.0.0, SVG Export Plug-In . SVG Version: 6.00 Build 0)  -->
<svg version="1.1" id="图层_1" xmlns="http://www.w3.org/2000/svg" xmlns:xlink="http://www.w3.org/1999/xlink" x="0px" y="0px"
	 viewBox="0 0 18 18" style="enable-background:new 0 0 18 18;" xml:space="preserve">
<style type="text/css">
	.st0{fill:#1e9fff;}
</style>
<path class="st0" d="M17.1,18H0.8C0.3,18,0,17.7,0,17.2v-1.3c0-0.4,0.3-0.8,0.8-0.8h16.4c0.4,0,0.8,0.3,0.8,0.8v1.3
	C17.9,17.7,17.6,18,17.1,18z"/>
<path class="st0" d="M18,3.2v9.2c0,0.5-0.3,0.8-0.8,0.8h-1.3c-0.4,0-0.8-0.3-0.8-0.8V3.1c0-0.4,0.3-0.8,0.8-0.8h1.3
	C17.7,2.4,18,2.7,18,3.2z"/>
<path class="st0" d="M13,0.9v11.5c0,0.5-0.3,0.8-0.8,0.8h-1.3c-0.4,0-0.8-0.3-0.8-0.8V0.8c0-0.4,0.3-0.8,0.8-0.8h1.3
	C12.7,0.1,13,0.4,13,0.9z"/>
<path class="st0" d="M7.9,5.8v6.6c0,0.5-0.3,0.8-0.8,0.8H5.8c-0.4,0-0.8-0.3-0.8-0.8V5.7c0-0.4,0.3-0.8,0.8-0.8h1.3
	C7.6,5,7.9,5.3,7.9,5.8z"/>
<path class="st0" d="M2.9,9.1v3.3c0,0.5-0.3,0.8-0.8,0.8H0.8c-0.4,0-0.8-0.3-0.8-0.8V9c0-0.4,0.3-0.8,0.8-0.8h1.3
	C2.6,8.3,2.9,8.6,2.9,9.1z"/>
</svg>
