<?xml version="1.0" encoding="utf-8"?>
<!-- Generator: Adobe Illustrator 22.0.0, SVG Export Plug-In . SVG Version: 6.00 Build 0)  -->
<svg version="1.1" id="图层_1" xmlns="http://www.w3.org/2000/svg" xmlns:xlink="http://www.w3.org/1999/xlink" x="0px" y="0px"
	 viewBox="0 0 18 18" style="enable-background:new 0 0 18 18;" xml:space="preserve">
<style type="text/css">
	.st0{fill:#E1E2E5;}
	.st1{fill:#C4C6CC;}
	.st2{fill:#1985D9;}
	.st3{fill:#58B7FF;}
</style>
<g id="Page-1">
	<g id="Artboard">
		<g id="XMLID_61_">
			<path id="XMLID_62_" class="st2" d="M17.1,1.5H15v2c0,1.1-0.9,2-2,2s-2-0.9-2-2v-2H7v2c0,1.1-0.9,2-2,2s-2-0.9-2-2v-2H1
				C0.4,1.5,0,2,0,2.6v14.3C0,17.5,0.5,18,1,18h16c0.6,0,1-0.5,1-1.1l0-14.3C18,2,17.7,1.5,17.1,1.5z M2.7,7.9h9.7
				c0.4,0,0.7,0.2,0.7,0.5s-0.3,0.5-0.7,0.5H2.7C2.3,8.9,2,8.7,2,8.4S2.3,7.9,2.7,7.9z M2.6,10.9h5.7c0.4,0,0.7,0.2,0.7,0.5
				s-0.3,0.5-0.7,0.5H2.6c-0.4,0-0.6-0.2-0.6-0.5S2.3,10.9,2.6,10.9z M15.3,14.9H2.7c-0.4,0-0.7-0.2-0.7-0.5s0.3-0.5,0.7-0.5h12.6
				c0.4,0,0.7,0.2,0.7,0.5S15.7,14.9,15.3,14.9z"/>
			<path id="XMLID_54_" class="st3" d="M5,0C4.4,0,4,0.4,4,1v2c0,0.6,0.4,1,1,1s1-0.4,1-1V1C6,0.4,5.6,0,5,0z M13,0
				c-0.6,0-1,0.4-1,1v2c0,0.6,0.4,1,1,1s1-0.4,1-1V1C14,0.4,13.6,0,13,0z"/>
		</g>
	</g>
</g>
</svg>
