<?xml version="1.0" encoding="utf-8"?>
<!-- Generator: Adobe Illustrator 22.0.0, SVG Export Plug-In . SVG Version: 6.00 Build 0)  -->
<svg version="1.1" id="图层_1" xmlns="http://www.w3.org/2000/svg" xmlns:xlink="http://www.w3.org/1999/xlink" x="0px" y="0px"
	 viewBox="0 0 18 18" style="enable-background:new 0 0 18 18;" xml:space="preserve">
<style type="text/css">
	.st0{fill:#1e9fff;}
</style>
<path class="st0" d="M3.3,11.2H0.8c-0.4,0-0.8-0.3-0.8-0.8v-3C0,7,0.3,6.6,0.8,6.6h2.6c0.4,0,0.8,0.3,0.8,0.8v3
	C4.1,10.9,3.8,11.2,3.3,11.2z"/>
<path class="st0" d="M3.3,18H0.8C0.3,18,0,17.7,0,17.2v-3c0-0.4,0.3-0.8,0.8-0.8h2.6c0.4,0,0.8,0.3,0.8,0.8v3
	C4.1,17.7,3.8,18,3.3,18z"/>
<path class="st0" d="M0,0.8v3c0,0.4,0.3,0.8,0.8,0.8h16.5c0.4,0,0.8-0.3,0.8-0.8v-3C18,0.3,17.7,0,17.2,0H0.8C0.3,0,0,0.3,0,0.8z
	 M2.9,2.8H1.7V1.7h1.2V2.8z M5.5,2.8H4.3V1.7h1.2V2.8z M8,2.8H6.8V1.7H8V2.8z"/>
<path class="st0" d="M17.2,6.8H7.5c-0.4,0-0.8,0.3-0.8,0.8v9.7c0,0.4,0.3,0.8,0.8,0.8h9.7c0.4,0,0.8-0.3,0.8-0.8V7.5
	C18,7.1,17.7,6.8,17.2,6.8z M15.9,14h-3l0,0h-1l0,0v-1V8h1v5h3V14z"/>
</svg>
