<?xml version="1.0" encoding="utf-8"?>
<!-- Generator: Adobe Illustrator 22.0.0, SVG Export Plug-In . SVG Version: 6.00 Build 0)  -->
<svg version="1.1" id="图层_1" xmlns="http://www.w3.org/2000/svg" xmlns:xlink="http://www.w3.org/1999/xlink" x="0px" y="0px"
	 viewBox="0 0 18 18" style="enable-background:new 0 0 18 18;" xml:space="preserve">
<style type="text/css">
	.st0{fill:#58B7FF;}
	.st1{fill:#1985D9;}
	.st2{fill:#E1E2E5;}
	.st3{fill:#C4C6CC;}
</style>
<path class="st0" d="M17.1,18H0.8C0.3,18,0,17.7,0,17.2v-1.3c0-0.4,0.3-0.8,0.8-0.8h16.4c0.4,0,0.8,0.3,0.8,0.8v1.3
	C17.9,17.7,17.6,18,17.1,18z"/>
<path class="st1" d="M17.1,0H0.8C0.3,0,0,0.3,0,0.8v11.5c0,0.4,0.3,0.8,0.8,0.8h16.4c0.4,0,0.8-0.3,0.8-0.8V0.8
	C17.9,0.3,17.6,0,17.1,0z M11.9,7.2l-2.1,2c0,0,0,0.1,0,0.1c0,0.5-0.4,0.8-0.8,0.8S8.2,9.7,8.2,9.3S8.5,8.5,9,8.5c0,0,0.1,0,0.1,0
	l2.1-2c0.2-0.2,0.5-0.2,0.7,0C12.1,6.7,12.1,7,11.9,7.2z M14.8,9.8c-0.3,0-0.5-0.2-0.5-0.5C14.3,6.4,11.9,4,9,4
	C6.1,4,3.7,6.4,3.7,9.3c0,0.3-0.2,0.5-0.5,0.5S2.7,9.5,2.7,9.3C2.7,5.8,5.5,3,9,3s6.3,2.8,6.3,6.3C15.3,9.5,15,9.8,14.8,9.8z"/>
</svg>
