<?xml version="1.0" encoding="utf-8"?>
<!-- Generator: Adobe Illustrator 22.0.0, SVG Export Plug-In . SVG Version: 6.00 Build 0)  -->
<svg version="1.1" id="图层_1" xmlns="http://www.w3.org/2000/svg" xmlns:xlink="http://www.w3.org/1999/xlink" x="0px" y="0px"
	 viewBox="0 0 18 18" style="enable-background:new 0 0 18 18;" xml:space="preserve">
<style type="text/css">
	.st0{fill:#E1E2E5;}
	.st1{fill:#C4C6CC;}
	.st2{fill:#1985D9;}
	.st3{fill:#58B7FF;}
</style>
<path id="Shape_823_copy" class="st2" d="M11,9v2H7V9H0v8.4C0,17.7,0.2,18,0.6,18h16.8c0.3,0,0.6-0.3,0.6-0.6V9H11z M8,8h2v2H8V8z"
	/>
<path class="st3" d="M13,4V2c0-1.2-0.5-2-1.7-2H6.7C5.5,0,5,0.9,5,2v2H0.6C0.3,4,0,4.3,0,4.6V8h7V7h4v1h7V4.6C18,4.3,17.7,4,17.4,4
	H13z M11.3,4H6.7V1.9c0-0.4,0.3-0.6,0.6-0.6h3.4c0.4,0,0.6,0.3,0.6,0.6V4z"/>
</svg>
