<?xml version="1.0" encoding="utf-8"?>
<!-- Generator: Adobe Illustrator 22.0.0, SVG Export Plug-In . SVG Version: 6.00 Build 0)  -->
<svg version="1.1" id="图层_1" xmlns="http://www.w3.org/2000/svg" xmlns:xlink="http://www.w3.org/1999/xlink" x="0px" y="0px"
	 viewBox="0 0 18 18" style="enable-background:new 0 0 18 18;" xml:space="preserve">
<style type="text/css">
	.st0{fill:#1e9fff;}
</style>
<path class="st0" d="M7.2,8H0.8C0.3,8,0,7.7,0,7.2V0.8C0,0.3,0.3,0,0.8,0h6.5C7.7,0,8,0.3,8,0.8v6.5C8,7.7,7.7,8,7.2,8z"/>
<path class="st0" d="M7.2,18H0.8C0.3,18,0,17.7,0,17.2v-6.5C0,10.3,0.3,10,0.8,10h6.5C7.7,10,8,10.3,8,10.8v6.5
	C8,17.7,7.7,18,7.2,18z"/>
<path class="st0" d="M17.9,7.1L16.8,6c0.5-0.6,0.8-1.4,0.8-2.3c0-2.1-1.7-3.8-3.8-3.8S10,1.7,10,3.8s1.7,3.8,3.8,3.8
	c0.9,0,1.6-0.3,2.3-0.8l1.1,1.1C17.2,8,17.4,8,17.5,8s0.3,0,0.4-0.1C18,7.7,18,7.3,17.9,7.1z M13.8,6.6c-1.5,0-2.8-1.2-2.8-2.8
	S12.2,1,13.8,1c1.5,0,2.8,1.2,2.8,2.8C16.6,5.3,15.3,6.6,13.8,6.6z"/>
<g>
	<path class="st0" d="M17.5,11h-7c-0.3,0-0.5-0.2-0.5-0.5s0.2-0.5,0.5-0.5h7c0.3,0,0.5,0.2,0.5,0.5S17.8,11,17.5,11z"/>
</g>
<g>
	<path class="st0" d="M17.5,13.3h-7c-0.3,0-0.5-0.2-0.5-0.5s0.2-0.5,0.5-0.5h7c0.3,0,0.5,0.2,0.5,0.5S17.8,13.3,17.5,13.3z"/>
</g>
<g>
	<path class="st0" d="M17.5,15.7h-7c-0.3,0-0.5-0.2-0.5-0.5s0.2-0.5,0.5-0.5h7c0.3,0,0.5,0.2,0.5,0.5S17.8,15.7,17.5,15.7z"/>
</g>
<g>
	<path class="st0" d="M17.5,18h-7c-0.3,0-0.5-0.2-0.5-0.5s0.2-0.5,0.5-0.5h7c0.3,0,0.5,0.2,0.5,0.5S17.8,18,17.5,18z"/>
</g>
</svg>
