<?xml version="1.0" encoding="utf-8"?>
<!-- Generator: Adobe Illustrator 16.0.0, SVG Export Plug-In . SVG Version: 6.00 Build 0)  -->
<!DOCTYPE svg PUBLIC "-//W3C//DTD SVG 1.1//EN" "http://www.w3.org/Graphics/SVG/1.1/DTD/svg11.dtd">
<svg version="1.1" id="图层_1" xmlns="http://www.w3.org/2000/svg" xmlns:xlink="http://www.w3.org/1999/xlink" x="0px" y="0px"
	 width="172.145px" height="161.992px" viewBox="0 0 172.145 161.992" enable-background="new 0 0 172.145 161.992"
	 xml:space="preserve">
<path fill="#FFFFFF" d="M115.558,63.166c-5.581-7.572-14.505-12.222-24.195-12.222c-9.689,0-18.613,4.65-24.195,12.222
	c-13.386-0.206-24.351,10.541-24.351,23.94c0,13.22,10.722,23.941,23.941,23.941h1.895v-8.473h-1.895
	c-8.543,0-15.469-6.926-15.469-15.469c0-8.544,6.926-15.47,15.469-15.47c1.679,0,3.295,0.268,4.809,0.764
	c3.321-7.64,10.934-12.982,19.796-12.982s16.474,5.342,19.797,12.982c1.513-0.496,3.129-0.764,4.808-0.764
	c8.543,0,15.469,6.926,15.469,15.47c0,8.542-6.926,15.469-15.469,15.469h-1.896v8.473h1.896c13.22,0,23.941-10.722,23.941-23.941
	C139.908,73.708,128.942,62.958,115.558,63.166z"/>
<path fill="#FFFFFF" d="M78.345,102.282c-2.416,0-4.379,1.959-4.379,4.382c0,2.414,1.963,4.376,4.379,4.376
	c2.418,0,4.378-1.962,4.378-4.376C82.723,104.241,80.763,102.282,78.345,102.282z"/>
<path fill="#FFFFFF" d="M91.237,102.282c-2.417,0-4.379,1.959-4.379,4.382c0,2.414,1.962,4.376,4.379,4.376
	c2.419,0,4.379-1.962,4.379-4.376C95.616,104.241,93.656,102.282,91.237,102.282z"/>
<path fill="#FFFFFF" d="M104.132,102.282c-2.42,0-4.38,1.959-4.38,4.382c0,2.414,1.96,4.376,4.38,4.376
	c2.419,0,4.378-1.962,4.378-4.376C108.51,104.241,106.551,102.282,104.132,102.282z"/>
<circle fill="#FFFFFF" cx="91.237" cy="93.769" r="4.377"/>
</svg>
