<?xml version="1.0" encoding="utf-8"?>
<!-- Generator: Adobe Illustrator 22.0.0, SVG Export Plug-In . SVG Version: 6.00 Build 0)  -->
<svg version="1.1" id="图层_1" xmlns="http://www.w3.org/2000/svg" xmlns:xlink="http://www.w3.org/1999/xlink" x="0px" y="0px"
	 viewBox="0 0 18 18" style="enable-background:new 0 0 18 18;" xml:space="preserve">
<style type="text/css">
	.st0{fill:#58B7FF;}
	.st1{fill:#1985D9;}
	.st2{fill:#F0F2F7;}
	.st3{fill:#DEE2EB;}
</style>
<circle class="st0" cx="9" cy="9" r="3"/>
<path class="st1" d="M10,0.1v3.5c2.6,0.5,4.5,2.7,4.5,5.4c0,0.6-0.1,1.3-0.3,1.8l3.1,1.8C17.7,11.5,18,10.3,18,9
	C18,4.4,14.5,0.6,10,0.1z"/>
<g>
	<path class="st1" d="M3.8,10.8C3.6,10.3,3.5,9.6,3.5,9c0-2.7,1.9-4.9,4.5-5.4V0.1C3.5,0.6,0,4.4,0,9c0,1.3,0.3,2.5,0.8,3.6
		L3.8,10.8z"/>
	<path class="st1" d="M13.2,12.6c-1,1.2-2.5,1.9-4.2,1.9c-1.7,0-3.2-0.8-4.2-1.9l-3.1,1.8C3.4,16.6,6,18,9,18s5.6-1.4,7.2-3.7
		L13.2,12.6z"/>
</g>
</svg>
